<?xml version="1.0" encoding="UTF-8" standalone="no"?><!DOCTYPE svg PUBLIC "-//W3C//DTD SVG 1.1//EN" "http://www.w3.org/Graphics/SVG/1.1/DTD/svg11.dtd"><!-- Generated by graphviz version 2.40.1 (20161225.0304)
 --><!-- Title: dependencies Pages: 1 --><svg xmlns="http://www.w3.org/2000/svg" xmlns:xlink="http://www.w3.org/1999/xlink" width="576pt" height="717pt" viewBox="0.00 0.00 576.00 716.96">
<g id="graph0" class="graph" transform="scale(.9459 .9459) rotate(0) translate(4 754)">
<title>dependencies</title>
<polygon fill="#ffffff" stroke="transparent" points="-4,4 -4,-754 604.9675,-754 604.9675,4 -4,4"/>
<!-- UseSqlite.py -->
<g id="node1" class="node">
<title>UseSqlite.py</title>
<ellipse fill="#d3d3d3" stroke="#000000" cx="134.9675" cy="-651" rx="29.378" ry="18"/>
<text text-anchor="middle" x="134.9675" y="-648.9" font-family="Times,serif" font-size="7.00" fill="#000000">UseSqlite.py</text>
</g>
<!-- sqlite3 -->
<g id="node2" class="node">
<title>sqlite3</title>
<ellipse fill="none" stroke="#000000" cx="302.9675" cy="-732" rx="27" ry="18"/>
<text text-anchor="middle" x="302.9675" y="-729.9" font-family="Times,serif" font-size="7.00" fill="#000000">sqlite3</text>
</g>
<!-- UseSqlite.py&#45;&gt;sqlite3 -->
<g id="edge1" class="edge">
<title>UseSqlite.py-&gt;sqlite3</title>
<path fill="none" stroke="#000000" d="M153.7095,-665.175C170.1168,-677.0681 194.9541,-693.8524 218.5353,-705 234.1715,-712.3917 252.3507,-718.4969 267.8269,-723.0207"/>
<polygon fill="#000000" stroke="#000000" points="266.9782,-726.4178 277.5528,-725.7627 268.8777,-719.6804 266.9782,-726.4178"/>
</g>
<!-- WordFreq.py -->
<g id="node3" class="node">
<title>WordFreq.py</title>
<ellipse fill="#d3d3d3" stroke="#000000" cx="134.9675" cy="-332" rx="30.117" ry="18"/>
<text text-anchor="middle" x="134.9675" y="-329.9" font-family="Times,serif" font-size="7.00" fill="#000000">WordFreq.py</text>
</g>
<!-- wordfreqCMD.py -->
<g id="node4" class="node">
<title>wordfreqCMD.py</title>
<ellipse fill="#d3d3d3" stroke="#000000" cx="302.9675" cy="-332" rx="37.0295" ry="18"/>
<text text-anchor="middle" x="302.9675" y="-329.9" font-family="Times,serif" font-size="7.00" fill="#000000">wordfreqCMD.py</text>
</g>
<!-- WordFreq.py&#45;&gt;wordfreqCMD.py -->
<g id="edge2" class="edge">
<title>WordFreq.py-&gt;wordfreqCMD.py</title>
<path fill="none" stroke="#000000" d="M165.3911,-332C190.4028,-332 226.2911,-332 255.1418,-332"/>
<polygon fill="#000000" stroke="#000000" points="255.4195,-335.5001 265.4195,-332 255.4194,-328.5001 255.4195,-335.5001"/>
</g>
<!-- string.py -->
<g id="node5" class="node">
<title>string.py</title>
<ellipse fill="none" stroke="#000000" cx="467.9675" cy="-510" rx="27" ry="18"/>
<text text-anchor="middle" x="467.9675" y="-507.9" font-family="Times,serif" font-size="7.00" fill="#000000">string.py</text>
</g>
<!-- WordFreq.py&#45;&gt;string.py -->
<g id="edge3" class="edge">
<title>WordFreq.py-&gt;string.py</title>
<path fill="none" stroke="#000000" d="M161.1295,-341.131C177.5109,-346.6789 199.1223,-353.6915 218.5353,-359 292.7387,-379.2909 325.6564,-351.1129 387.3998,-397 422.6274,-423.1809 407.9349,-449.2077 435.944,-483 437.8148,-485.257 439.8905,-487.4727 442.0601,-489.6042"/>
<polygon fill="#000000" stroke="#000000" points="439.8752,-492.3473 449.6376,-496.4638 444.573,-487.1579 439.8752,-492.3473"/>
</g>
<!-- wordfreqCMD.py&#45;&gt;string.py -->
<g id="edge24" class="edge">
<title>wordfreqCMD.py-&gt;string.py</title>
<path fill="none" stroke="#000000" d="M338.1547,-338.4946C354.8619,-343.1454 374.045,-350.9757 387.3998,-364 428.2927,-403.881 402.3466,-436.8054 435.944,-483 437.6683,-485.3708 439.6436,-487.6645 441.7482,-489.8465"/>
<polygon fill="#000000" stroke="#000000" points="439.5136,-492.5477 449.2242,-496.785 444.2755,-487.4169 439.5136,-492.5477"/>
</g>
<!-- pickle_idea.py -->
<g id="node10" class="node">
<title>pickle_idea.py</title>
<ellipse fill="#d3d3d3" stroke="#000000" cx="467.9675" cy="-240" rx="32.047" ry="18"/>
<text text-anchor="middle" x="467.9675" y="-237.9" font-family="Times,serif" font-size="7.00" fill="#000000">pickle_idea.py</text>
</g>
<!-- wordfreqCMD.py&#45;&gt;pickle_idea.py -->
<g id="edge20" class="edge">
<title>wordfreqCMD.py-&gt;pickle_idea.py</title>
<path fill="none" stroke="#000000" d="M337.0021,-324.2042C352.8745,-319.8049 371.6837,-313.4674 387.3998,-305 393.4324,-301.7498 420.8733,-279.3015 442.0727,-261.6838"/>
<polygon fill="#000000" stroke="#000000" points="444.391,-264.3079 449.8344,-255.2183 439.9108,-258.9295 444.391,-264.3079"/>
</g>
<!-- os.py -->
<g id="node14" class="node">
<title>os.py</title>
<ellipse fill="none" stroke="#000000" cx="467.9675" cy="-294" rx="27" ry="18"/>
<text text-anchor="middle" x="467.9675" y="-291.9" font-family="Times,serif" font-size="7.00" fill="#000000">os.py</text>
</g>
<!-- wordfreqCMD.py&#45;&gt;os.py -->
<g id="edge23" class="edge">
<title>wordfreqCMD.py-&gt;os.py</title>
<path fill="none" stroke="#000000" d="M336.7559,-324.2184C364.6342,-317.798 404.0744,-308.7148 432.424,-302.1858"/>
<polygon fill="#000000" stroke="#000000" points="433.3655,-305.5606 442.3249,-299.9056 431.7945,-298.7392 433.3655,-305.5606"/>
</g>
<!-- collections.py -->
<g id="node16" class="node">
<title>collections.py</title>
<ellipse fill="none" stroke="#000000" cx="467.9675" cy="-348" rx="30.8682" ry="18"/>
<text text-anchor="middle" x="467.9675" y="-345.9" font-family="Times,serif" font-size="7.00" fill="#000000">collections.py</text>
</g>
<!-- wordfreqCMD.py&#45;&gt;collections.py -->
<g id="edge21" class="edge">
<title>wordfreqCMD.py-&gt;collections.py</title>
<path fill="none" stroke="#000000" d="M339.5864,-335.5509C365.4855,-338.0624 400.2301,-341.4315 427.0427,-344.0315"/>
<polygon fill="#000000" stroke="#000000" points="426.9705,-347.5409 437.2617,-345.0225 427.6462,-340.5735 426.9705,-347.5409"/>
</g>
<!-- operator -->
<g id="node17" class="node">
<title>operator</title>
<ellipse fill="none" stroke="#000000" cx="467.9675" cy="-456" rx="27" ry="18"/>
<text text-anchor="middle" x="467.9675" y="-453.9" font-family="Times,serif" font-size="7.00" fill="#000000">operator</text>
</g>
<!-- wordfreqCMD.py&#45;&gt;operator -->
<g id="edge22" class="edge">
<title>wordfreqCMD.py-&gt;operator</title>
<path fill="none" stroke="#000000" d="M336.8291,-340.0389C353.2105,-345.0692 372.5021,-352.7732 387.3998,-364 416.195,-385.7 411.2117,-402.7632 435.944,-429 437.9549,-431.1332 440.1265,-433.264 442.3584,-435.3404"/>
<polygon fill="#000000" stroke="#000000" points="440.2195,-438.1209 450.033,-442.1143 444.8517,-432.8728 440.2195,-438.1209"/>
</g>
<!-- sys -->
<g id="node18" class="node">
<title>sys</title>
<ellipse fill="none" stroke="#000000" cx="467.9675" cy="-402" rx="27" ry="18"/>
<text text-anchor="middle" x="467.9675" y="-399.9" font-family="Times,serif" font-size="7.00" fill="#000000">sys</text>
</g>
<!-- wordfreqCMD.py&#45;&gt;sys -->
<g id="edge25" class="edge">
<title>wordfreqCMD.py-&gt;sys</title>
<path fill="none" stroke="#000000" d="M333.2847,-342.8356C349.4673,-348.7834 369.6518,-356.465 387.3998,-364 403.9818,-371.04 422.1544,-379.5409 437.0369,-386.7156"/>
<polygon fill="#000000" stroke="#000000" points="435.7677,-389.9901 446.292,-391.2103 438.8257,-383.6934 435.7677,-389.9901"/>
</g>
<!-- difficulty.py -->
<g id="node6" class="node">
<title>difficulty.py</title>
<ellipse fill="#d3d3d3" stroke="#000000" cx="134.9675" cy="-240" rx="28.5644" ry="18"/>
<text text-anchor="middle" x="134.9675" y="-237.9" font-family="Times,serif" font-size="7.00" fill="#000000">difficulty.py</text>
</g>
<!-- difficulty.py&#45;&gt;wordfreqCMD.py -->
<g id="edge4" class="edge">
<title>difficulty.py-&gt;wordfreqCMD.py</title>
<path fill="none" stroke="#000000" d="M150.7348,-255.0527C166.7086,-269.5951 192.6848,-291.3678 218.5353,-305 231.1186,-311.6358 245.623,-316.9997 259.0206,-321.1451"/>
<polygon fill="#000000" stroke="#000000" points="258.4188,-324.6162 268.9999,-324.0785 260.3929,-317.9003 258.4188,-324.6162"/>
</g>
<!-- math -->
<g id="node7" class="node">
<title>math</title>
<ellipse fill="none" stroke="#000000" cx="302.9675" cy="-278" rx="27" ry="18"/>
<text text-anchor="middle" x="302.9675" y="-275.9" font-family="Times,serif" font-size="7.00" fill="#000000">math</text>
</g>
<!-- difficulty.py&#45;&gt;math -->
<g id="edge5" class="edge">
<title>difficulty.py-&gt;math</title>
<path fill="none" stroke="#000000" d="M161.9596,-246.1054C190.4595,-252.5518 235.5368,-262.7478 267.03,-269.8713"/>
<polygon fill="#000000" stroke="#000000" points="266.6201,-273.3669 277.1459,-272.1594 268.1645,-266.5394 266.6201,-273.3669"/>
</g>
<!-- pickle.py -->
<g id="node8" class="node">
<title>pickle.py</title>
<ellipse fill="none" stroke="#000000" cx="571.9675" cy="-194" rx="27" ry="18"/>
<text text-anchor="middle" x="571.9675" y="-191.9" font-family="Times,serif" font-size="7.00" fill="#000000">pickle.py</text>
</g>
<!-- difficulty.py&#45;&gt;pickle.py -->
<g id="edge6" class="edge">
<title>difficulty.py-&gt;pickle.py</title>
<path fill="none" stroke="#000000" d="M163.3036,-237.0173C239.6503,-228.9808 449.6313,-206.8775 535.0748,-197.8834"/>
<polygon fill="#000000" stroke="#000000" points="535.5187,-201.3561 545.0974,-196.8284 534.7859,-194.3946 535.5187,-201.3561"/>
</g>
<!-- main.py -->
<g id="node9" class="node">
<title>main.py</title>
<ellipse fill="#d3d3d3" stroke="#000000" cx="28.9675" cy="-217" rx="27" ry="18"/>
<text text-anchor="middle" x="28.9675" y="-214.9" font-family="Times,serif" font-size="7.00" fill="#000000">main.py</text>
</g>
<!-- main.py&#45;&gt;UseSqlite.py -->
<g id="edge7" class="edge">
<title>main.py-&gt;UseSqlite.py</title>
<path fill="none" stroke="#000000" d="M32.5055,-234.8551C42.279,-283.6708 70.9201,-423.3631 100.9782,-538 108.6832,-567.3856 118.8665,-600.6432 126.0717,-623.4272"/>
<polygon fill="#000000" stroke="#000000" points="122.7846,-624.6398 129.153,-633.107 129.4548,-622.5165 122.7846,-624.6398"/>
</g>
<!-- main.py&#45;&gt;WordFreq.py -->
<g id="edge8" class="edge">
<title>main.py-&gt;WordFreq.py</title>
<path fill="none" stroke="#000000" d="M42.0463,-233.0222C56.1365,-250.054 79.4415,-277.5698 100.9782,-300 104.0093,-303.1569 107.2741,-306.4058 110.5389,-309.5674"/>
<polygon fill="#000000" stroke="#000000" points="108.3872,-312.351 118.0475,-316.7019 113.209,-307.2764 108.3872,-312.351"/>
</g>
<!-- main.py&#45;&gt;wordfreqCMD.py -->
<g id="edge12" class="edge">
<title>main.py-&gt;wordfreqCMD.py</title>
<path fill="none" stroke="#000000" d="M46.1104,-231.0748C60.1606,-242.0591 80.9283,-257.0717 100.9782,-267 152.8252,-292.6734 217.0782,-311.3098 259.0025,-321.881"/>
<polygon fill="#000000" stroke="#000000" points="258.3499,-325.325 268.8979,-324.3307 260.0321,-318.5301 258.3499,-325.325"/>
</g>
<!-- main.py&#45;&gt;difficulty.py -->
<g id="edge9" class="edge">
<title>main.py-&gt;difficulty.py</title>
<path fill="none" stroke="#000000" d="M54.898,-222.6264C67.82,-225.4302 83.6765,-228.8708 97.8598,-231.9483"/>
<polygon fill="#000000" stroke="#000000" points="97.311,-235.4106 107.8258,-234.1108 98.7954,-228.5698 97.311,-235.4106"/>
</g>
<!-- main.py&#45;&gt;pickle_idea.py -->
<g id="edge10" class="edge">
<title>main.py-&gt;pickle_idea.py</title>
<path fill="none" stroke="#000000" d="M34.0889,-199.1852C42.8927,-172.0983 63.6514,-121.1588 100.9782,-97 207.9737,-27.7498 278.6343,-16.5644 387.3998,-83 433.445,-111.1251 454.2673,-174.8571 462.7789,-211.8936"/>
<polygon fill="#000000" stroke="#000000" points="459.4318,-212.978 464.952,-222.0211 466.276,-211.5093 459.4318,-212.978"/>
</g>
<!-- pickle_idea2.py -->
<g id="node11" class="node">
<title>pickle_idea2.py</title>
<ellipse fill="#d3d3d3" stroke="#000000" cx="134.9675" cy="-148" rx="33.9787" ry="18"/>
<text text-anchor="middle" x="134.9675" y="-145.9" font-family="Times,serif" font-size="7.00" fill="#000000">pickle_idea2.py</text>
</g>
<!-- main.py&#45;&gt;pickle_idea2.py -->
<g id="edge11" class="edge">
<title>main.py-&gt;pickle_idea2.py</title>
<path fill="none" stroke="#000000" d="M48.4096,-204.3443C64.2294,-194.0465 86.8257,-179.3376 104.964,-167.5306"/>
<polygon fill="#000000" stroke="#000000" points="106.9896,-170.3883 113.461,-161.9995 103.1707,-164.5217 106.9896,-170.3883"/>
</g>
<!-- datetime -->
<g id="node12" class="node">
<title>datetime</title>
<ellipse fill="none" stroke="#000000" cx="302.9675" cy="-110" rx="27" ry="18"/>
<text text-anchor="middle" x="302.9675" y="-107.9" font-family="Times,serif" font-size="7.00" fill="#000000">datetime</text>
</g>
<!-- main.py&#45;&gt;datetime -->
<g id="edge13" class="edge">
<title>main.py-&gt;datetime</title>
<path fill="none" stroke="#000000" d="M36.3753,-199.4108C46.9788,-176.7359 68.8221,-138.1853 100.9782,-121 153.2317,-93.0739 224.3347,-97.1772 266.7512,-103.223"/>
<polygon fill="#000000" stroke="#000000" points="266.4719,-106.7211 276.888,-104.7836 267.5371,-99.8026 266.4719,-106.7211"/>
</g>
<!-- glob.py -->
<g id="node13" class="node">
<title>glob.py</title>
<ellipse fill="none" stroke="#000000" cx="134.9675" cy="-18" rx="27" ry="18"/>
<text text-anchor="middle" x="134.9675" y="-15.9" font-family="Times,serif" font-size="7.00" fill="#000000">glob.py</text>
</g>
<!-- main.py&#45;&gt;glob.py -->
<g id="edge14" class="edge">
<title>main.py-&gt;glob.py</title>
<path fill="none" stroke="#000000" d="M33.993,-199.219C43.558,-167.3208 66.5469,-99.1251 100.9782,-50 103.6137,-46.2398 106.7474,-42.5767 110.0297,-39.1518"/>
<polygon fill="#000000" stroke="#000000" points="112.5717,-41.5622 117.317,-32.0894 107.7002,-36.5354 112.5717,-41.5622"/>
</g>
<!-- main.py&#45;&gt;os.py -->
<g id="edge15" class="edge">
<title>main.py-&gt;os.py</title>
<path fill="none" stroke="#000000" d="M55.9671,-215.1446C69.4765,-214.3067 86.0838,-213.4134 100.9782,-213 229.3427,-209.4376 265.9666,-209.2373 387.3998,-251 405.6515,-257.277 424.7632,-267.3076 439.7899,-276.1026"/>
<polygon fill="#000000" stroke="#000000" points="438.1985,-279.2294 448.574,-281.3744 441.8007,-273.2274 438.1985,-279.2294"/>
</g>
<!-- random.py -->
<g id="node15" class="node">
<title>random.py</title>
<ellipse fill="none" stroke="#000000" cx="467.9675" cy="-567" rx="27" ry="18"/>
<text text-anchor="middle" x="467.9675" y="-564.9" font-family="Times,serif" font-size="7.00" fill="#000000">random.py</text>
</g>
<!-- main.py&#45;&gt;random.py -->
<g id="edge16" class="edge">
<title>main.py-&gt;random.py</title>
<path fill="none" stroke="#000000" d="M34.6685,-234.7455C52.3474,-286.5944 111.5858,-438.3759 218.5353,-505 283.8299,-545.6753 312.968,-523.5633 387.3998,-543 402.6265,-546.9762 419.3199,-551.8608 433.5429,-556.183"/>
<polygon fill="#000000" stroke="#000000" points="432.8198,-559.6221 443.4067,-559.2098 434.8734,-552.9301 432.8198,-559.6221"/>
</g>
<!-- pickle_idea.py&#45;&gt;pickle.py -->
<g id="edge17" class="edge">
<title>pickle_idea.py-&gt;pickle.py</title>
<path fill="none" stroke="#000000" d="M493.143,-228.8647C507.148,-222.6702 524.7279,-214.8945 539.7297,-208.259"/>
<polygon fill="#000000" stroke="#000000" points="541.4228,-211.3373 549.1523,-204.0913 538.5912,-204.9356 541.4228,-211.3373"/>
</g>
<!-- pickle_idea2.py&#45;&gt;pickle.py -->
<g id="edge19" class="edge">
<title>pickle_idea2.py-&gt;pickle.py</title>
<path fill="none" stroke="#000000" d="M168.5326,-151.5332C248.8397,-159.9865 451.5739,-181.327 535.1139,-190.1207"/>
<polygon fill="#000000" stroke="#000000" points="534.8483,-193.612 545.1598,-191.1781 535.5812,-186.6504 534.8483,-193.612"/>
</g>
<!-- pickle_idea2.py&#45;&gt;datetime -->
<g id="edge18" class="edge">
<title>pickle_idea2.py-&gt;datetime</title>
<path fill="none" stroke="#000000" d="M166.567,-140.8525C195.2205,-134.3714 237.418,-124.8267 267.2773,-118.0728"/>
<polygon fill="#000000" stroke="#000000" points="268.3005,-121.4298 277.2819,-115.8098 266.7561,-114.6023 268.3005,-121.4298"/>
</g>
<!-- test_add_word.py -->
<g id="node19" class="node">
<title>test_add_word.py</title>
<ellipse fill="#d3d3d3" stroke="#000000" cx="302.9675" cy="-678" rx="37.0964" ry="18"/>
<text text-anchor="middle" x="302.9675" y="-675.9" font-family="Times,serif" font-size="7.00" fill="#000000">test_add_word.py</text>
</g>
<!-- test_add_word.py&#45;&gt;string.py -->
<g id="edge27" class="edge">
<title>test_add_word.py-&gt;string.py</title>
<path fill="none" stroke="#000000" d="M339.2104,-673.3363C355.5664,-669.623 374.1448,-662.9582 387.3998,-651 427.3791,-614.9317 404.8715,-583.9746 435.944,-540 438.0927,-536.9592 440.5882,-533.9859 443.2197,-531.1653"/>
<polygon fill="#000000" stroke="#000000" points="445.7036,-533.6314 450.3586,-524.1139 440.7844,-528.6512 445.7036,-533.6314"/>
</g>
<!-- test_add_word.py&#45;&gt;random.py -->
<g id="edge26" class="edge">
<title>test_add_word.py-&gt;random.py</title>
<path fill="none" stroke="#000000" d="M337.653,-671.3047C353.6679,-667.1465 372.4091,-660.694 387.3998,-651 414.4993,-633.4756 413.3598,-620.053 435.944,-597 438.6063,-594.2825 441.4485,-591.4836 444.2991,-588.7385"/>
<polygon fill="#000000" stroke="#000000" points="446.889,-591.1063 451.7466,-581.6906 442.0776,-586.022 446.889,-591.1063"/>
</g>
<!-- time -->
<g id="node20" class="node">
<title>time</title>
<ellipse fill="none" stroke="#000000" cx="467.9675" cy="-624" rx="27" ry="18"/>
<text text-anchor="middle" x="467.9675" y="-621.9" font-family="Times,serif" font-size="7.00" fill="#000000">time</text>
</g>
<!-- test_add_word.py&#45;&gt;time -->
<g id="edge28" class="edge">
<title>test_add_word.py-&gt;time</title>
<path fill="none" stroke="#000000" d="M334.2765,-668.1016C350.2002,-663.0385 369.8491,-656.7467 387.3998,-651 402.7775,-645.9648 419.7685,-640.2877 434.1671,-635.4431"/>
<polygon fill="#000000" stroke="#000000" points="435.3113,-638.751 443.6696,-632.2403 433.0755,-632.1176 435.3113,-638.751"/>
</g>
<!-- test_add_word_and_essay_does_not_change.py -->
<g id="node21" class="node">
<title>test_add_word_and_essay_does_not_change.py</title>
<ellipse fill="#d3d3d3" stroke="#000000" cx="302.9675" cy="-624" rx="84.3645" ry="18"/>
<text text-anchor="middle" x="302.9675" y="-621.9" font-family="Times,serif" font-size="7.00" fill="#000000">test_add_word_and_essay_does_not_change.py</text>
</g>
<!-- test_add_word_and_essay_does_not_change.py&#45;&gt;string.py -->
<g id="edge30" class="edge">
<title>test_add_word_and_essay_does_not_change.py-&gt;string.py</title>
<path fill="none" stroke="#000000" d="M359.9294,-610.5963C369.532,-607.0133 379.0733,-602.544 387.3998,-597 415.0974,-578.558 412.978,-564.0796 435.944,-540 438.5697,-537.247 441.3895,-534.4266 444.2279,-531.6697"/>
<polygon fill="#000000" stroke="#000000" points="446.821,-534.0339 451.6637,-524.6105 442.0015,-528.9572 446.821,-534.0339"/>
</g>
<!-- test_add_word_and_essay_does_not_change.py&#45;&gt;random.py -->
<g id="edge29" class="edge">
<title>test_add_word_and_essay_does_not_change.py-&gt;random.py</title>
<path fill="none" stroke="#000000" d="M350.8748,-609.1107C362.8403,-605.2737 375.6189,-601.0745 387.3998,-597 403.1013,-591.5695 420.3808,-585.1896 434.8974,-579.7127"/>
<polygon fill="#000000" stroke="#000000" points="436.3441,-582.9073 444.4526,-576.0879 433.8613,-576.3624 436.3441,-582.9073"/>
</g>
<!-- test_add_word_and_essay_does_not_change.py&#45;&gt;time -->
<g id="edge31" class="edge">
<title>test_add_word_and_essay_does_not_change.py-&gt;time</title>
<path fill="none" stroke="#000000" d="M387.401,-624C402.5153,-624 417.543,-624 430.4535,-624"/>
<polygon fill="#000000" stroke="#000000" points="430.7558,-627.5001 440.7558,-624 430.7558,-620.5001 430.7558,-627.5001"/>
</g>
<!-- test_login.py -->
<g id="node22" class="node">
<title>test_login.py</title>
<ellipse fill="#d3d3d3" stroke="#000000" cx="302.9675" cy="-424" rx="29.3189" ry="18"/>
<text text-anchor="middle" x="302.9675" y="-421.9" font-family="Times,serif" font-size="7.00" fill="#000000">test_login.py</text>
</g>
<!-- test_login.py&#45;&gt;string.py -->
<g id="edge33" class="edge">
<title>test_login.py-&gt;string.py</title>
<path fill="none" stroke="#000000" d="M330.8487,-430.4847C347.7446,-434.9996 369.4326,-441.8554 387.3998,-451 398.7054,-456.7542 423.4139,-475.2101 442.5071,-489.9654"/>
<polygon fill="#000000" stroke="#000000" points="440.5096,-492.8457 450.5529,-496.2197 444.8057,-487.3191 440.5096,-492.8457"/>
</g>
<!-- test_login.py&#45;&gt;random.py -->
<g id="edge32" class="edge">
<title>test_login.py-&gt;random.py</title>
<path fill="none" stroke="#000000" d="M332.1163,-427.841C349.6894,-431.3982 371.645,-438.1759 387.3998,-451 421.4395,-478.7078 408.8279,-502.487 435.944,-537 438.2944,-539.9915 440.9463,-542.9574 443.6927,-545.7939"/>
<polygon fill="#000000" stroke="#000000" points="441.4284,-548.4738 451.0411,-552.9288 446.3047,-543.4516 441.4284,-548.4738"/>
</g>
<!-- test_next_essay.py -->
<g id="node23" class="node">
<title>test_next_essay.py</title>
<ellipse fill="#d3d3d3" stroke="#000000" cx="302.9675" cy="-570" rx="38.653" ry="18"/>
<text text-anchor="middle" x="302.9675" y="-567.9" font-family="Times,serif" font-size="7.00" fill="#000000">test_next_essay.py</text>
</g>
<!-- test_next_essay.py&#45;&gt;string.py -->
<g id="edge35" class="edge">
<title>test_next_essay.py-&gt;string.py</title>
<path fill="none" stroke="#000000" d="M333.6161,-558.8551C362.336,-548.4115 405.1544,-532.8411 434.6959,-522.0988"/>
<polygon fill="#000000" stroke="#000000" points="435.9639,-525.362 444.1658,-518.6552 433.5717,-518.7834 435.9639,-525.362"/>
</g>
<!-- test_next_essay.py&#45;&gt;random.py -->
<g id="edge34" class="edge">
<title>test_next_essay.py-&gt;random.py</title>
<path fill="none" stroke="#000000" d="M341.6527,-569.2966C368.5614,-568.8074 404.2308,-568.1588 430.8013,-567.6757"/>
<polygon fill="#000000" stroke="#000000" points="430.9251,-571.1742 440.8597,-567.4929 430.7977,-564.1753 430.9251,-571.1742"/>
</g>
<!-- test_next_essay.py&#45;&gt;time -->
<g id="edge36" class="edge">
<title>test_next_essay.py-&gt;time</title>
<path fill="none" stroke="#000000" d="M335.0757,-580.1525C350.8546,-585.1711 370.1416,-591.3491 387.3998,-597 402.7775,-602.0352 419.7685,-607.7123 434.1671,-612.5569"/>
<polygon fill="#000000" stroke="#000000" points="433.0755,-615.8824 443.6696,-615.7597 435.3113,-609.249 433.0755,-615.8824"/>
</g>
<!-- test_signup.py -->
<g id="node24" class="node">
<title>test_signup.py</title>
<ellipse fill="#d3d3d3" stroke="#000000" cx="302.9675" cy="-478" rx="31.6243" ry="18"/>
<text text-anchor="middle" x="302.9675" y="-475.9" font-family="Times,serif" font-size="7.00" fill="#000000">test_signup.py</text>
</g>
<!-- test_signup.py&#45;&gt;string.py -->
<g id="edge38" class="edge">
<title>test_signup.py-&gt;string.py</title>
<path fill="none" stroke="#000000" d="M333.2311,-483.8693C361.1108,-489.2763 402.5109,-497.3054 432.0541,-503.035"/>
<polygon fill="#000000" stroke="#000000" points="431.4844,-506.4896 441.9678,-504.9576 432.8172,-499.6177 431.4844,-506.4896"/>
</g>
<!-- test_signup.py&#45;&gt;random.py -->
<g id="edge37" class="edge">
<title>test_signup.py-&gt;random.py</title>
<path fill="none" stroke="#000000" d="M331.1199,-486.6681C347.9177,-492.3249 369.4095,-500.4273 387.3998,-510 407.0541,-520.4582 427.5129,-534.9846 442.8961,-546.755"/>
<polygon fill="#000000" stroke="#000000" points="440.8406,-549.5903 450.8828,-552.9673 445.1384,-544.065 440.8406,-549.5903"/>
</g>
</g>
</svg>